<svg width="20" height="20" viewBox="0 0 20 20" fill="none" xmlns="http://www.w3.org/2000/svg">
<path d="M14.5861 0H5.4138C2.42858 0 0 2.37889 0 5.30302V14.2878C0 17.2118 2.42858 19.5907 5.4138 19.5907H14.5863C17.5714 19.5907 19.9999 17.2118 19.9999 14.2878V5.30302C19.9999 2.37889 17.5714 0 14.5861 0V0ZM18.8275 14.2878C18.8275 16.5785 16.9248 18.4422 14.5861 18.4422H5.4138C3.07509 18.4422 1.17248 16.5785 1.17248 14.2878V5.30302C1.17248 3.01217 3.07509 1.14849 5.4138 1.14849H14.5863C16.9248 1.14849 18.8275 3.01217 18.8275 5.30302V14.2878Z" fill="#49676E"/>
<path d="M9.99997 4.43848C6.98453 4.43848 4.53137 6.8414 4.53137 9.7951C4.53137 12.7488 6.98453 15.1517 9.99997 15.1517C13.0154 15.1517 15.4686 12.7488 15.4686 9.7951C15.4686 6.8414 13.0154 4.43848 9.99997 4.43848ZM9.99997 14.0033C7.6312 14.0033 5.70386 12.1155 5.70386 9.7951C5.70386 7.47483 7.6312 5.58696 9.99997 5.58696C12.3689 5.58696 14.2961 7.47483 14.2961 9.7951C14.2961 12.1155 12.3689 14.0033 9.99997 14.0033Z" fill="#49676E"/>
</svg>
