<svg width="120" height="35" viewBox="0 0 120 35" fill="none" xmlns="http://www.w3.org/2000/svg">
<path d="M17.075 0.0499991C18.4417 0.0499991 19.7083 0.416666 20.875 1.15C22.0417 1.88333 22.975 2.95 23.675 4.35C24.375 5.75 24.725 7.38333 24.725 9.25C24.725 11.75 24.1583 13.8667 23.025 15.6C21.8917 17.3 20.4917 18.5667 18.825 19.4C17.1917 20.2333 15.575 20.65 13.975 20.65C12.9417 20.65 12.0083 20.55 11.175 20.35C10.375 20.15 9.54167 19.8167 8.675 19.35V29.7C8.675 30.7 8.79167 31.4333 9.025 31.9C9.29167 32.3667 9.775 32.6833 10.475 32.85C11.175 33.05 12.2417 33.15 13.675 33.15C13.7417 33.15 13.775 33.25 13.775 33.45C13.775 33.65 13.7417 33.75 13.675 33.75C12.5417 33.75 11.6417 33.7333 10.975 33.7L7.325 33.65L4.575 33.7C4.10833 33.7333 3.49167 33.75 2.725 33.75C2.625 33.75 2.575 33.65 2.575 33.45C2.575 33.25 2.625 33.15 2.725 33.15C3.625 33.15 4.29167 33.05 4.725 32.85C5.15833 32.6833 5.45833 32.3667 5.625 31.9C5.79167 31.4333 5.875 30.7 5.875 29.7V6.2C5.875 5 5.74167 4.15 5.475 3.65C5.20833 3.11667 4.74167 2.85 4.075 2.85C3.34167 2.85 2.45833 3.08333 1.425 3.55L1.325 3.6C1.19167 3.6 1.10833 3.51667 1.075 3.35C1.00833 3.18333 1.025 3.06667 1.125 3L6.675 0.35C6.74167 0.316666 6.85833 0.299999 7.025 0.299999C7.49167 0.299999 7.875 0.649999 8.175 1.35C8.475 2.05 8.64167 3.05 8.675 4.35C11.5083 1.48333 14.3083 0.0499991 17.075 0.0499991ZM15.475 19.6C17.2417 19.6 18.6917 18.8333 19.825 17.3C20.9583 15.7333 21.525 13.5667 21.525 10.8C21.525 8 20.9083 5.83333 19.675 4.3C18.4417 2.73333 16.875 1.95 14.975 1.95C13.8083 1.95 12.725 2.23333 11.725 2.8C10.725 3.36667 9.70833 4.16667 8.675 5.2V16.45C9.60833 17.4833 10.5917 18.2667 11.625 18.8C12.6917 19.3333 13.975 19.6 15.475 19.6ZM44.6121 17.2C44.7121 17.2 44.7954 17.2667 44.8621 17.4C44.9621 17.5 44.9788 17.6 44.9121 17.7C42.7121 19.6333 40.2788 20.6 37.6121 20.6C35.6788 20.6 34.0288 20.15 32.6621 19.25C31.2954 18.35 30.2454 17.1667 29.5121 15.7C28.8121 14.2333 28.4621 12.6667 28.4621 11C28.4621 9.03333 28.9288 7.23333 29.8621 5.6C30.7954 3.93333 32.0621 2.63333 33.6621 1.7C35.2954 0.733333 37.0788 0.249999 39.0121 0.249999C40.8788 0.249999 42.3121 0.749999 43.3121 1.75C44.3121 2.75 44.8121 4.15 44.8121 5.95C44.8121 6.41667 44.7621 6.75 44.6621 6.95C44.5954 7.15 44.4621 7.25 44.2621 7.25L31.8621 7.3C31.7954 8.03333 31.7621 8.63333 31.7621 9.1C31.7621 12 32.4454 14.35 33.8121 16.15C35.1788 17.95 37.0954 18.85 39.5621 18.85C40.5621 18.85 41.4121 18.7167 42.1121 18.45C42.8454 18.1833 43.6621 17.7667 44.5621 17.2H44.6121ZM37.3621 1.25C35.9288 1.25 34.7454 1.73333 33.8121 2.7C32.8788 3.63333 32.2621 4.95 31.9621 6.65L41.4621 6.45C41.4621 4.75 41.0954 3.46667 40.3621 2.6C39.6288 1.7 38.6288 1.25 37.3621 1.25ZM63.0223 0.0499991C64.3889 0.0499991 65.6556 0.416666 66.8223 1.15C67.9889 1.88333 68.9223 2.95 69.6223 4.35C70.3223 5.75 70.6723 7.38333 70.6723 9.25C70.6723 11.75 70.1056 13.8667 68.9723 15.6C67.8389 17.3 66.4389 18.5667 64.7723 19.4C63.1389 20.2333 61.5223 20.65 59.9223 20.65C58.8889 20.65 57.9556 20.55 57.1223 20.35C56.3223 20.15 55.4889 19.8167 54.6223 19.35V29.7C54.6223 30.7 54.7389 31.4333 54.9723 31.9C55.2389 32.3667 55.7223 32.6833 56.4223 32.85C57.1223 33.05 58.1889 33.15 59.6223 33.15C59.6889 33.15 59.7223 33.25 59.7223 33.45C59.7223 33.65 59.6889 33.75 59.6223 33.75C58.4889 33.75 57.5889 33.7333 56.9223 33.7L53.2723 33.65L50.5223 33.7C50.0556 33.7333 49.4389 33.75 48.6723 33.75C48.5723 33.75 48.5223 33.65 48.5223 33.45C48.5223 33.25 48.5723 33.15 48.6723 33.15C49.5723 33.15 50.2389 33.05 50.6723 32.85C51.1056 32.6833 51.4056 32.3667 51.5723 31.9C51.7389 31.4333 51.8223 30.7 51.8223 29.7V6.2C51.8223 5 51.6889 4.15 51.4223 3.65C51.1556 3.11667 50.6889 2.85 50.0223 2.85C49.2889 2.85 48.4056 3.08333 47.3723 3.55L47.2723 3.6C47.1389 3.6 47.0556 3.51667 47.0223 3.35C46.9556 3.18333 46.9723 3.06667 47.0723 3L52.6223 0.35C52.6889 0.316666 52.8056 0.299999 52.9723 0.299999C53.4389 0.299999 53.8223 0.649999 54.1223 1.35C54.4223 2.05 54.5889 3.05 54.6223 4.35C57.4556 1.48333 60.2556 0.0499991 63.0223 0.0499991ZM61.4223 19.6C63.1889 19.6 64.6389 18.8333 65.7723 17.3C66.9056 15.7333 67.4723 13.5667 67.4723 10.8C67.4723 8 66.8556 5.83333 65.6223 4.3C64.3889 2.73333 62.8223 1.95 60.9223 1.95C59.7556 1.95 58.6723 2.23333 57.6723 2.8C56.6723 3.36667 55.6556 4.16667 54.6223 5.2V16.45C55.5556 17.4833 56.5389 18.2667 57.5723 18.8C58.6389 19.3333 59.9223 19.6 61.4223 19.6ZM88.5594 0.0499991C89.926 0.0499991 91.1927 0.416666 92.3594 1.15C93.526 1.88333 94.4594 2.95 95.1594 4.35C95.8594 5.75 96.2094 7.38333 96.2094 9.25C96.2094 11.75 95.6427 13.8667 94.5094 15.6C93.376 17.3 91.976 18.5667 90.3094 19.4C88.676 20.2333 87.0594 20.65 85.4594 20.65C84.426 20.65 83.4927 20.55 82.6594 20.35C81.8594 20.15 81.026 19.8167 80.1594 19.35V29.7C80.1594 30.7 80.276 31.4333 80.5094 31.9C80.776 32.3667 81.2594 32.6833 81.9594 32.85C82.6594 33.05 83.726 33.15 85.1594 33.15C85.226 33.15 85.2594 33.25 85.2594 33.45C85.2594 33.65 85.226 33.75 85.1594 33.75C84.026 33.75 83.126 33.7333 82.4594 33.7L78.8094 33.65L76.0594 33.7C75.5927 33.7333 74.976 33.75 74.2094 33.75C74.1094 33.75 74.0594 33.65 74.0594 33.45C74.0594 33.25 74.1094 33.15 74.2094 33.15C75.1094 33.15 75.776 33.05 76.2094 32.85C76.6427 32.6833 76.9427 32.3667 77.1094 31.9C77.276 31.4333 77.3594 30.7 77.3594 29.7V6.2C77.3594 5 77.226 4.15 76.9594 3.65C76.6927 3.11667 76.226 2.85 75.5594 2.85C74.826 2.85 73.9427 3.08333 72.9094 3.55L72.8094 3.6C72.676 3.6 72.5927 3.51667 72.5594 3.35C72.4927 3.18333 72.5094 3.06667 72.6094 3L78.1594 0.35C78.226 0.316666 78.3427 0.299999 78.5094 0.299999C78.976 0.299999 79.3594 0.649999 79.6594 1.35C79.9594 2.05 80.126 3.05 80.1594 4.35C82.9927 1.48333 85.7927 0.0499991 88.5594 0.0499991ZM86.9594 19.6C88.726 19.6 90.176 18.8333 91.3094 17.3C92.4427 15.7333 93.0094 13.5667 93.0094 10.8C93.0094 8 92.3927 5.83333 91.1594 4.3C89.926 2.73333 88.3594 1.95 86.4594 1.95C85.2927 1.95 84.2094 2.23333 83.2094 2.8C82.2094 3.36667 81.1927 4.16667 80.1594 5.2V16.45C81.0927 17.4833 82.076 18.2667 83.1094 18.8C84.176 19.3333 85.4594 19.6 86.9594 19.6ZM119.696 0.7C119.796 0.7 119.846 0.799999 119.846 0.999999C119.846 1.2 119.796 1.3 119.696 1.3C118.863 1.3 118.146 1.6 117.546 2.2C116.946 2.8 116.38 3.78333 115.846 5.15L109.746 21.4C108.513 24.6333 107.346 27.15 106.246 28.95C105.18 30.7833 104.063 32.0833 102.896 32.85C101.763 33.65 100.446 34.05 98.9465 34.05C98.2132 34.05 97.6132 33.8833 97.1465 33.55C96.6465 33.2167 96.3965 32.7333 96.3965 32.1C96.3965 31.6333 96.5465 31.2667 96.8465 31C97.1465 30.7333 97.5132 30.6 97.9465 30.6C98.3798 30.6 98.7465 30.65 99.0465 30.75C99.3465 30.85 99.6632 31.0167 99.9965 31.25C100.063 31.2833 100.246 31.3833 100.546 31.55C100.88 31.7167 101.28 31.8 101.746 31.8C102.546 31.8 103.296 31.45 103.996 30.75C104.73 30.05 105.496 28.8667 106.296 27.2C107.13 25.5667 108.096 23.3 109.196 20.4L101.596 4.85C100.83 3.38333 100.246 2.43333 99.8465 2C99.4465 1.53333 98.9298 1.3 98.2965 1.3C98.2298 1.3 98.1965 1.2 98.1965 0.999999C98.1965 0.799999 98.2298 0.7 98.2965 0.7L99.9965 0.749999C100.396 0.783333 100.946 0.8 101.646 0.8L104.846 0.749999C105.313 0.716666 105.963 0.7 106.796 0.7C106.863 0.7 106.896 0.799999 106.896 0.999999C106.896 1.2 106.863 1.3 106.796 1.3C104.863 1.3 103.896 1.68333 103.896 2.45C103.896 2.65 103.98 2.91667 104.146 3.25L110.746 16.8L114.746 5.3C115.013 4.5 115.146 3.86667 115.146 3.4C115.146 2.63333 114.846 2.1 114.246 1.8C113.646 1.46667 112.663 1.3 111.296 1.3C111.23 1.3 111.196 1.2 111.196 0.999999C111.196 0.799999 111.23 0.7 111.296 0.7C112.196 0.7 112.88 0.716666 113.346 0.749999L116.346 0.8L118.146 0.749999C118.48 0.716666 118.996 0.7 119.696 0.7Z" fill="#49676E"/>
</svg>
