<svg width="20" height="17" viewBox="0 0 20 17" fill="none" xmlns="http://www.w3.org/2000/svg">
<path d="M17.9442 4.92448C17.9569 5.0985 17.9569 5.27256 17.9569 5.44658C17.9569 10.7544 13.8325 16.8704 6.29442 16.8704C3.97207 16.8704 1.81473 16.2115 0 15.0679C0.329961 15.1052 0.647188 15.1176 0.989845 15.1176C2.90606 15.1176 4.67004 14.4837 6.07868 13.4022C4.27664 13.3649 2.76649 12.2089 2.24617 10.6177C2.5 10.655 2.75379 10.6799 3.02032 10.6799C3.38832 10.6799 3.75637 10.6301 4.09899 10.5432C2.22082 10.1702 0.812149 8.55424 0.812149 6.60262V6.55292C1.35781 6.85126 1.99238 7.03771 2.66492 7.06255C1.56086 6.34155 0.83754 5.11093 0.83754 3.71869C0.83754 2.97286 1.04055 2.28917 1.3959 1.6925C3.41367 4.12891 6.44669 5.72001 9.84766 5.89406C9.78423 5.59573 9.74614 5.28499 9.74614 4.97422C9.74614 2.76153 11.5736 0.959106 13.8451 0.959106C15.0253 0.959106 16.0913 1.4439 16.8401 2.22703C17.7664 2.05301 18.6547 1.71737 19.4416 1.25744C19.137 2.18977 18.4898 2.9729 17.6395 3.47009C18.4644 3.38312 19.2639 3.15932 19.9999 2.84858C19.4417 3.64411 18.7436 4.35263 17.9442 4.92448Z" fill="#49676E"/>
</svg>
